<svg width="30" height="30" viewBox="0 0 30 30" fill="none" xmlns="http://www.w3.org/2000/svg">
<path d="M21.6638 26.0371C20.3716 27.3036 18.9606 27.1036 17.6024 26.5037C16.1651 25.8904 14.8464 25.8638 13.33 26.5037C11.4311 27.3303 10.429 27.0903 9.29493 26.0371C2.85994 19.3313 3.80937 9.11923 11.1147 8.74594C12.8948 8.83926 14.1344 9.73248 15.1761 9.81247C16.7321 9.49251 18.2222 8.57263 19.8837 8.69261C21.8748 8.85259 23.3781 9.65249 24.3671 11.0923C20.2529 13.5853 21.2287 19.0646 25 20.5978C24.2484 22.5975 23.2726 24.5839 21.6506 26.0504L21.6638 26.0371ZM15.0442 8.66595C14.8464 5.69299 17.2332 3.23997 19.976 3C20.3584 6.43957 16.8903 8.99924 15.0442 8.66595Z" fill="#676767"/>
</svg>
