<svg width="30" height="30" viewBox="0 0 30 30" fill="none" xmlns="http://www.w3.org/2000/svg">
<path d="M26.7666 12.6498H25.8V12.6H15V17.4H21.7818C20.7924 20.1942 18.1338 22.2 15 22.2C11.0238 22.2 7.8 18.9762 7.8 15C7.8 11.0238 11.0238 7.8 15 7.8C16.8354 7.8 18.5052 8.4924 19.7766 9.6234L23.1708 6.2292C21.0276 4.2318 18.1608 3 15 3C8.373 3 3 8.373 3 15C3 21.627 8.373 27 15 27C21.627 27 27 21.627 27 15C27 14.1954 26.9172 13.41 26.7666 12.6498Z" fill="#FFC107"/>
<path d="M4.38281 9.4146L8.32541 12.306C9.39221 9.6648 11.9758 7.8 14.9992 7.8C16.8346 7.8 18.5044 8.4924 19.7758 9.6234L23.17 6.2292C21.0268 4.2318 18.16 3 14.9992 3C10.39 3 6.39281 5.6022 4.38281 9.4146Z" fill="#FF3D00"/>
<path d="M14.9994 27C18.099 27 20.9154 25.8138 23.0448 23.8848L19.3308 20.742C18.0855 21.689 16.5639 22.2012 14.9994 22.2C11.8782 22.2 9.22801 20.2098 8.22961 17.4324L4.31641 20.4474C6.30241 24.3336 10.3356 27 14.9994 27Z" fill="#4CAF50"/>
<path d="M26.7666 12.6498H25.8V12.6H15V17.4H21.7818C21.3085 18.7298 20.456 19.8919 19.3296 20.7426L19.3314 20.7414L23.0454 23.8842C22.7826 24.123 27 21 27 15C27 14.1954 26.9172 13.41 26.7666 12.6498Z" fill="#1976D2"/>
</svg>
