<svg width="28" height="28" viewBox="0 0 28 28" fill="none" xmlns="http://www.w3.org/2000/svg">
<g clip-path="url(#clip0_1_534)">
<path d="M27.1772 27.1765L20.8189 20.8182M20.8189 20.8182C21.9065 19.7306 22.7692 18.4394 23.3578 17.0183C23.9464 15.5973 24.2494 14.0743 24.2494 12.5361C24.2494 10.998 23.9464 9.47496 23.3578 8.05392C22.7692 6.63288 21.9065 5.3417 20.8189 4.25408C19.7312 3.16647 18.4401 2.30373 17.019 1.71511C15.598 1.1265 14.0749 0.823547 12.5368 0.823547C10.9987 0.823547 9.47563 1.1265 8.05459 1.71511C6.63356 2.30373 5.34237 3.16647 4.25476 4.25408C2.05822 6.45062 0.824219 9.42976 0.824219 12.5361C0.824219 15.6425 2.05822 18.6216 4.25476 20.8182C6.45129 23.0147 9.43043 24.2487 12.5368 24.2487C15.6432 24.2487 18.6223 23.0147 20.8189 20.8182Z" stroke="white" stroke-width="1.7" stroke-linecap="round" stroke-linejoin="round"/>
</g>
<defs>
<clipPath id="clip0_1_534">
<rect width="28" height="28" fill="white"/>
</clipPath>
</defs>
</svg>
