<svg width="46" height="40" viewBox="0 0 46 40" fill="none" xmlns="http://www.w3.org/2000/svg">
<path d="M25.0827 20H43.8327M43.8327 20L36.8889 11.6667M43.8327 20L36.8889 28.3334M27.166 9.58336V5.77919C27.166 5.20289 27.0464 4.63285 26.8148 4.10512C26.5833 3.57739 26.2447 3.10344 25.8206 2.71322C25.3965 2.323 24.8961 2.025 24.351 1.83805C23.8058 1.6511 23.2278 1.57928 22.6535 1.62711L5.98685 3.01461C4.94529 3.10136 3.97437 3.57638 3.26664 4.34546C2.55891 5.11455 2.16607 6.12153 2.16602 7.16669V32.8334C2.16607 33.8785 2.55891 34.8855 3.26664 35.6546C3.97437 36.4237 4.94529 36.8987 5.98685 36.9854L22.6535 38.375C23.228 38.4229 23.8062 38.351 24.3515 38.1639C24.8967 37.9768 25.3973 37.6787 25.8214 37.2882C26.2455 36.8978 26.584 36.4236 26.8155 35.8956C27.0469 35.3676 27.1663 34.7973 27.166 34.2209V30.4167" stroke="#40A2E3" stroke-width="3" stroke-linecap="round" stroke-linejoin="round"/>
</svg>
